<?xml version="1.0" standalone="no"?>
<!DOCTYPE svg PUBLIC "-//W3C//DTD SVG 1.1//EN" "http://www.w3.org/Graphics/SVG/1.1/DTD/svg11.dtd">
<svg xmlns="http://www.w3.org/2000/svg" version="1.1">
<line  x1="87" y1="50" x2="162" y2="50" stroke="#333333" stroke-width="1" fill="none"/>
<line  x1="125" y1="50" x2="125" y2="65" stroke="#333333" stroke-width="1" fill="none"/>
<text  x="117" y="48" style="font-size:12; font-family:Dialog.plain; fill=#333333">CA</text>
<line  x1="237" y1="50" x2="312" y2="50" stroke="#333333" stroke-width="1" fill="none"/>
<line  x1="275" y1="50" x2="275" y2="65" stroke="#333333" stroke-width="1" fill="none"/>
<text  x="248" y="48" style="font-size:12; font-family:Dialog.plain; fill=#333333">DC_motor</text>
<line  x1="387" y1="50" x2="462" y2="50" stroke="#333333" stroke-width="1" fill="none"/>
<line  x1="425" y1="50" x2="425" y2="65" stroke="#333333" stroke-width="1" fill="none"/>
<text  x="396" y="48" style="font-size:12; font-family:Dialog.plain; fill=#333333">US_sensor</text>
<text  x="10" y="73" style="font-size:12; font-family:Dialog.plain; fill=#333333">@0</text>
<line  x1="125" y1="65" x2="125" y2="75" stroke="#333333" stroke-width="1" fill="none"/>
<rect  x="105" y="75" width="40" height="20" rx="5" ry="5" fill="#c1daf1"/>
<rect  x="105" y="75" width="40" height="20" rx="5" ry="5" fill="none" stroke="#333333" stroke-width="1"/>
<text  x="107" y="91" style="font-size:12; font-family:Dialog.plain; fill=#333333">waiting</text>
<line  x1="125" y1="95" x2="125" y2="105" stroke="#333333" stroke-width="1" fill="none"/>
<line  x1="275" y1="65" x2="275" y2="105" stroke="#333333" stroke-width="1" fill="none"/>
<line  x1="425" y1="65" x2="425" y2="105" stroke="#333333" stroke-width="1" fill="none"/>
<line  x1="275" y1="105" x2="275" y2="115" stroke="#333333" stroke-width="1" fill="none"/>
<rect  x="266" y="115" width="18" height="20" rx="5" ry="5" fill="#c1daf1"/>
<rect  x="266" y="115" width="18" height="20" rx="5" ry="5" fill="none" stroke="#333333" stroke-width="1"/>
<text  x="268" y="131" style="font-size:12; font-family:Dialog.plain; fill=#333333">init</text>
<line  x1="275" y1="135" x2="275" y2="145" stroke="#333333" stroke-width="1" fill="none"/>
<line  x1="125" y1="105" x2="125" y2="145" stroke="#333333" stroke-width="1" fill="none"/>
<line  x1="425" y1="105" x2="425" y2="145" stroke="#333333" stroke-width="1" fill="none"/>
<line  x1="275" y1="145" x2="275" y2="155" stroke="#333333" stroke-width="1" fill="none"/>
<rect  x="264" y="155" width="22" height="20" rx="5" ry="5" fill="#c1daf1"/>
<rect  x="264" y="155" width="22" height="20" rx="5" ry="5" fill="none" stroke="#333333" stroke-width="1"/>
<text  x="266" y="171" style="font-size:12; font-family:Dialog.plain; fill=#333333">idle</text>
<line  x1="275" y1="175" x2="275" y2="185" stroke="#333333" stroke-width="1" fill="none"/>
<line  x1="125" y1="145" x2="125" y2="185" stroke="#333333" stroke-width="1" fill="none"/>
<line  x1="425" y1="145" x2="425" y2="185" stroke="#333333" stroke-width="1" fill="none"/>
<line  x1="425" y1="185" x2="425" y2="195" stroke="#333333" stroke-width="1" fill="none"/>
<rect  x="416" y="195" width="18" height="20" rx="5" ry="5" fill="#c1daf1"/>
<rect  x="416" y="195" width="18" height="20" rx="5" ry="5" fill="none" stroke="#333333" stroke-width="1"/>
<text  x="418" y="211" style="font-size:12; font-family:Dialog.plain; fill=#333333">init</text>
<line  x1="425" y1="215" x2="425" y2="225" stroke="#333333" stroke-width="1" fill="none"/>
<line  x1="125" y1="185" x2="125" y2="225" stroke="#333333" stroke-width="1" fill="none"/>
<line  x1="275" y1="185" x2="275" y2="225" stroke="#333333" stroke-width="1" fill="none"/>
<line  x1="425" y1="225" x2="425" y2="235" stroke="#333333" stroke-width="1" fill="none"/>
<rect  x="411" y="235" width="29" height="20" rx="5" ry="5" fill="#c1daf1"/>
<rect  x="411" y="235" width="29" height="20" rx="5" ry="5" fill="none" stroke="#333333" stroke-width="1"/>
<text  x="413" y="251" style="font-size:12; font-family:Dialog.plain; fill=#333333">busy</text>
<line  x1="425" y1="255" x2="425" y2="265" stroke="#333333" stroke-width="1" fill="none"/>
<line  x1="125" y1="225" x2="125" y2="265" stroke="#333333" stroke-width="1" fill="none"/>
<line  x1="275" y1="225" x2="275" y2="265" stroke="#333333" stroke-width="1" fill="none"/>
<line  x1="425" y1="265" x2="425" y2="275" stroke="#333333" stroke-width="1" fill="none"/>
<rect  x="388" y="275" width="74" height="20" rx="5" ry="5" fill="#ffffff"/>
<rect  x="388" y="275" width="74" height="20" rx="5" ry="5" fill="none" stroke="#333333" stroke-width="1"/>
<text  x="390" y="291" style="font-size:12; font-family:Dialog.plain; fill=#333333">distance = 55</text>
<line  x1="425" y1="295" x2="425" y2="305" stroke="#333333" stroke-width="1" fill="none"/>
<line  x1="125" y1="265" x2="125" y2="305" stroke="#333333" stroke-width="1" fill="none"/>
<line  x1="275" y1="265" x2="275" y2="305" stroke="#333333" stroke-width="1" fill="none"/>
<line  x1="125" y1="314" x2="275" y2="314" stroke="#80b4cd" stroke-width="1" fill="none"/>
<line  x1="125" y1="315" x2="275" y2="315" stroke="#333333" stroke-width="1" fill="none"/>
<polygon  points="275,315 266,319 266,310 " fill="#333333"/>
<polygon  points="275,315 266,319 266,310 " fill="none" stroke="#333333" stroke-width="1"/>
<text  x="137" y="313" style="font-size:12; font-family:Dialog.plain; fill=#333333">DC_SEND_DC_GET(0)</text>
<line  x1="275" y1="305" x2="275" y2="325" stroke="#333333" stroke-width="1" fill="none"/>
<line  x1="125" y1="305" x2="125" y2="325" stroke="#333333" stroke-width="1" fill="none"/>
<line  x1="425" y1="305" x2="425" y2="325" stroke="#333333" stroke-width="1" fill="none"/>
<line  x1="275" y1="325" x2="275" y2="335" stroke="#333333" stroke-width="1" fill="none"/>
<rect  x="261" y="335" width="29" height="20" rx="5" ry="5" fill="#c1daf1"/>
<rect  x="261" y="335" width="29" height="20" rx="5" ry="5" fill="none" stroke="#333333" stroke-width="1"/>
<text  x="263" y="351" style="font-size:12; font-family:Dialog.plain; fill=#333333">busy</text>
<line  x1="275" y1="355" x2="275" y2="365" stroke="#333333" stroke-width="1" fill="none"/>
<line  x1="125" y1="325" x2="125" y2="365" stroke="#333333" stroke-width="1" fill="none"/>
<line  x1="425" y1="325" x2="425" y2="365" stroke="#333333" stroke-width="1" fill="none"/>
<line  x1="275" y1="365" x2="275" y2="375" stroke="#333333" stroke-width="1" fill="none"/>
<rect  x="264" y="375" width="22" height="20" rx="5" ry="5" fill="#c1daf1"/>
<rect  x="264" y="375" width="22" height="20" rx="5" ry="5" fill="none" stroke="#333333" stroke-width="1"/>
<text  x="266" y="391" style="font-size:12; font-family:Dialog.plain; fill=#333333">idle</text>
<line  x1="275" y1="395" x2="275" y2="405" stroke="#333333" stroke-width="1" fill="none"/>
<line  x1="125" y1="365" x2="125" y2="405" stroke="#333333" stroke-width="1" fill="none"/>
<line  x1="425" y1="365" x2="425" y2="405" stroke="#333333" stroke-width="1" fill="none"/>
<line  x1="425" y1="414" x2="125" y2="414" stroke="#80b4cd" stroke-width="1" fill="none"/>
<line  x1="425" y1="415" x2="125" y2="415" stroke="#333333" stroke-width="1" fill="none"/>
<polygon  points="125,415 133,410 133,419 " fill="#333333"/>
<polygon  points="125,415 133,410 133,419 " fill="none" stroke="#333333" stroke-width="1"/>
<text  x="211" y="413" style="font-size:12; font-family:Dialog.plain; fill=#333333">US_SEND_US_GET(55)</text>
<line  x1="125" y1="405" x2="125" y2="425" stroke="#333333" stroke-width="1" fill="none"/>
<line  x1="275" y1="405" x2="275" y2="425" stroke="#333333" stroke-width="1" fill="none"/>
<line  x1="425" y1="405" x2="425" y2="425" stroke="#333333" stroke-width="1" fill="none"/>
<line  x1="125" y1="425" x2="125" y2="435" stroke="#333333" stroke-width="1" fill="none"/>
<rect  x="96" y="435" width="58" height="20" rx="5" ry="5" fill="#c1daf1"/>
<rect  x="96" y="435" width="58" height="20" rx="5" ry="5" fill="none" stroke="#333333" stroke-width="1"/>
<text  x="98" y="451" style="font-size:12; font-family:Dialog.plain; fill=#333333">choice__1</text>
<line  x1="125" y1="455" x2="125" y2="465" stroke="#333333" stroke-width="1" fill="none"/>
<line  x1="275" y1="425" x2="275" y2="465" stroke="#333333" stroke-width="1" fill="none"/>
<line  x1="425" y1="425" x2="425" y2="465" stroke="#333333" stroke-width="1" fill="none"/>
<line  x1="425" y1="465" x2="425" y2="475" stroke="#333333" stroke-width="1" fill="none"/>
<rect  x="411" y="475" width="29" height="20" rx="5" ry="5" fill="#c1daf1"/>
<rect  x="411" y="475" width="29" height="20" rx="5" ry="5" fill="none" stroke="#333333" stroke-width="1"/>
<text  x="413" y="491" style="font-size:12; font-family:Dialog.plain; fill=#333333">busy</text>
<line  x1="425" y1="495" x2="425" y2="505" stroke="#333333" stroke-width="1" fill="none"/>
<line  x1="125" y1="465" x2="125" y2="505" stroke="#333333" stroke-width="1" fill="none"/>
<line  x1="275" y1="465" x2="275" y2="505" stroke="#333333" stroke-width="1" fill="none"/>
<rect  x="94" y="505" width="62" height="20" rx="5" ry="5" fill="#ffffff"/>
<rect  x="94" y="505" width="62" height="20" rx="5" ry="5" fill="none" stroke="#333333" stroke-width="1"/>
<text  x="96" y="521" style="font-size:12; font-family:Dialog.plain; fill=#7710f3">speed = 30</text>
<line  x1="125" y1="525" x2="125" y2="535" stroke="#333333" stroke-width="1" fill="none"/>
<line  x1="275" y1="505" x2="275" y2="535" stroke="#333333" stroke-width="1" fill="none"/>
<line  x1="425" y1="505" x2="425" y2="535" stroke="#333333" stroke-width="1" fill="none"/>
<line  x1="125" y1="535" x2="125" y2="545" stroke="#333333" stroke-width="1" fill="none"/>
<rect  x="106" y="545" width="38" height="20" rx="5" ry="5" fill="#c1daf1"/>
<rect  x="106" y="545" width="38" height="20" rx="5" ry="5" fill="none" stroke="#333333" stroke-width="1"/>
<text  x="108" y="561" style="font-size:12; font-family:Dialog.plain; fill=#333333">driving</text>
<line  x1="125" y1="565" x2="125" y2="575" stroke="#333333" stroke-width="1" fill="none"/>
<line  x1="275" y1="535" x2="275" y2="575" stroke="#333333" stroke-width="1" fill="none"/>
<line  x1="425" y1="535" x2="425" y2="575" stroke="#333333" stroke-width="1" fill="none"/>
<line  x1="125" y1="584" x2="275" y2="584" stroke="#80b4cd" stroke-width="1" fill="none"/>
<line  x1="125" y1="585" x2="275" y2="585" stroke="#333333" stroke-width="1" fill="none"/>
<polygon  points="275,585 266,589 266,580 " fill="#333333"/>
<polygon  points="275,585 266,589 266,580 " fill="none" stroke="#333333" stroke-width="1"/>
<text  x="134" y="583" style="font-size:12; font-family:Dialog.plain; fill=#333333">DC_SEND_DC_GET(30)</text>
<line  x1="275" y1="575" x2="275" y2="595" stroke="#333333" stroke-width="1" fill="none"/>
<line  x1="125" y1="575" x2="125" y2="595" stroke="#333333" stroke-width="1" fill="none"/>
<line  x1="425" y1="575" x2="425" y2="595" stroke="#333333" stroke-width="1" fill="none"/>
<line  x1="275" y1="595" x2="275" y2="605" stroke="#333333" stroke-width="1" fill="none"/>
<rect  x="261" y="605" width="29" height="20" rx="5" ry="5" fill="#c1daf1"/>
<rect  x="261" y="605" width="29" height="20" rx="5" ry="5" fill="none" stroke="#333333" stroke-width="1"/>
<text  x="263" y="621" style="font-size:12; font-family:Dialog.plain; fill=#333333">busy</text>
<line  x1="275" y1="625" x2="275" y2="635" stroke="#333333" stroke-width="1" fill="none"/>
<line  x1="125" y1="595" x2="125" y2="635" stroke="#333333" stroke-width="1" fill="none"/>
<line  x1="425" y1="595" x2="425" y2="635" stroke="#333333" stroke-width="1" fill="none"/>
<line  x1="275" y1="635" x2="275" y2="645" stroke="#333333" stroke-width="1" fill="none"/>
<rect  x="264" y="645" width="22" height="20" rx="5" ry="5" fill="#c1daf1"/>
<rect  x="264" y="645" width="22" height="20" rx="5" ry="5" fill="none" stroke="#333333" stroke-width="1"/>
<text  x="266" y="661" style="font-size:12; font-family:Dialog.plain; fill=#333333">idle</text>
<line  x1="275" y1="665" x2="275" y2="675" stroke="#333333" stroke-width="1" fill="none"/>
<line  x1="125" y1="635" x2="125" y2="675" stroke="#333333" stroke-width="1" fill="none"/>
<line  x1="425" y1="635" x2="425" y2="675" stroke="#333333" stroke-width="1" fill="none"/>
<line  x1="425" y1="675" x2="425" y2="685" stroke="#333333" stroke-width="1" fill="none"/>
<rect  x="388" y="685" width="74" height="20" rx="5" ry="5" fill="#ffffff"/>
<rect  x="388" y="685" width="74" height="20" rx="5" ry="5" fill="none" stroke="#333333" stroke-width="1"/>
<text  x="390" y="701" style="font-size:12; font-family:Dialog.plain; fill=#333333">distance = 51</text>
<line  x1="425" y1="705" x2="425" y2="715" stroke="#333333" stroke-width="1" fill="none"/>
<line  x1="125" y1="675" x2="125" y2="715" stroke="#333333" stroke-width="1" fill="none"/>
<line  x1="275" y1="675" x2="275" y2="715" stroke="#333333" stroke-width="1" fill="none"/>
<line  x1="425" y1="724" x2="125" y2="724" stroke="#80b4cd" stroke-width="1" fill="none"/>
<line  x1="425" y1="725" x2="125" y2="725" stroke="#333333" stroke-width="1" fill="none"/>
<polygon  points="125,725 133,720 133,729 " fill="#333333"/>
<polygon  points="125,725 133,720 133,729 " fill="none" stroke="#333333" stroke-width="1"/>
<text  x="211" y="723" style="font-size:12; font-family:Dialog.plain; fill=#333333">US_SEND_US_GET(51)</text>
<line  x1="125" y1="715" x2="125" y2="735" stroke="#333333" stroke-width="1" fill="none"/>
<line  x1="275" y1="715" x2="275" y2="735" stroke="#333333" stroke-width="1" fill="none"/>
<line  x1="425" y1="715" x2="425" y2="735" stroke="#333333" stroke-width="1" fill="none"/>
<line  x1="125" y1="735" x2="125" y2="745" stroke="#333333" stroke-width="1" fill="none"/>
<rect  x="96" y="745" width="58" height="20" rx="5" ry="5" fill="#c1daf1"/>
<rect  x="96" y="745" width="58" height="20" rx="5" ry="5" fill="none" stroke="#333333" stroke-width="1"/>
<text  x="98" y="761" style="font-size:12; font-family:Dialog.plain; fill=#333333">choice__0</text>
<line  x1="125" y1="765" x2="125" y2="775" stroke="#333333" stroke-width="1" fill="none"/>
<line  x1="275" y1="735" x2="275" y2="775" stroke="#333333" stroke-width="1" fill="none"/>
<line  x1="425" y1="735" x2="425" y2="775" stroke="#333333" stroke-width="1" fill="none"/>
<line  x1="425" y1="775" x2="425" y2="785" stroke="#333333" stroke-width="1" fill="none"/>
<rect  x="411" y="785" width="29" height="20" rx="5" ry="5" fill="#c1daf1"/>
<rect  x="411" y="785" width="29" height="20" rx="5" ry="5" fill="none" stroke="#333333" stroke-width="1"/>
<text  x="413" y="801" style="font-size:12; font-family:Dialog.plain; fill=#333333">busy</text>
<line  x1="425" y1="805" x2="425" y2="815" stroke="#333333" stroke-width="1" fill="none"/>
<line  x1="125" y1="775" x2="125" y2="815" stroke="#333333" stroke-width="1" fill="none"/>
<line  x1="275" y1="775" x2="275" y2="815" stroke="#333333" stroke-width="1" fill="none"/>
<rect  x="94" y="815" width="62" height="20" rx="5" ry="5" fill="#ffffff"/>
<rect  x="94" y="815" width="62" height="20" rx="5" ry="5" fill="none" stroke="#333333" stroke-width="1"/>
<text  x="96" y="831" style="font-size:12; font-family:Dialog.plain; fill=#7710f3">speed = 30</text>
<line  x1="125" y1="835" x2="125" y2="845" stroke="#333333" stroke-width="1" fill="none"/>
<line  x1="275" y1="815" x2="275" y2="845" stroke="#333333" stroke-width="1" fill="none"/>
<line  x1="425" y1="815" x2="425" y2="845" stroke="#333333" stroke-width="1" fill="none"/>
<line  x1="125" y1="845" x2="125" y2="855" stroke="#333333" stroke-width="1" fill="none"/>
<rect  x="106" y="855" width="38" height="20" rx="5" ry="5" fill="#c1daf1"/>
<rect  x="106" y="855" width="38" height="20" rx="5" ry="5" fill="none" stroke="#333333" stroke-width="1"/>
<text  x="108" y="871" style="font-size:12; font-family:Dialog.plain; fill=#333333">driving</text>
<line  x1="125" y1="875" x2="125" y2="885" stroke="#333333" stroke-width="1" fill="none"/>
<line  x1="275" y1="845" x2="275" y2="885" stroke="#333333" stroke-width="1" fill="none"/>
<line  x1="425" y1="845" x2="425" y2="885" stroke="#333333" stroke-width="1" fill="none"/>
<line  x1="125" y1="894" x2="275" y2="894" stroke="#80b4cd" stroke-width="1" fill="none"/>
<line  x1="125" y1="895" x2="275" y2="895" stroke="#333333" stroke-width="1" fill="none"/>
<polygon  points="275,895 266,899 266,890 " fill="#333333"/>
<polygon  points="275,895 266,899 266,890 " fill="none" stroke="#333333" stroke-width="1"/>
<text  x="134" y="893" style="font-size:12; font-family:Dialog.plain; fill=#333333">DC_SEND_DC_GET(30)</text>
<line  x1="275" y1="885" x2="275" y2="905" stroke="#333333" stroke-width="1" fill="none"/>
<line  x1="125" y1="885" x2="125" y2="905" stroke="#333333" stroke-width="1" fill="none"/>
<line  x1="425" y1="885" x2="425" y2="905" stroke="#333333" stroke-width="1" fill="none"/>
<line  x1="275" y1="905" x2="275" y2="915" stroke="#333333" stroke-width="1" fill="none"/>
<rect  x="261" y="915" width="29" height="20" rx="5" ry="5" fill="#c1daf1"/>
<rect  x="261" y="915" width="29" height="20" rx="5" ry="5" fill="none" stroke="#333333" stroke-width="1"/>
<text  x="263" y="931" style="font-size:12; font-family:Dialog.plain; fill=#333333">busy</text>
<line  x1="275" y1="935" x2="275" y2="945" stroke="#333333" stroke-width="1" fill="none"/>
<line  x1="125" y1="905" x2="125" y2="945" stroke="#333333" stroke-width="1" fill="none"/>
<line  x1="425" y1="905" x2="425" y2="945" stroke="#333333" stroke-width="1" fill="none"/>
<line  x1="275" y1="945" x2="275" y2="955" stroke="#333333" stroke-width="1" fill="none"/>
<rect  x="264" y="955" width="22" height="20" rx="5" ry="5" fill="#c1daf1"/>
<rect  x="264" y="955" width="22" height="20" rx="5" ry="5" fill="none" stroke="#333333" stroke-width="1"/>
<text  x="266" y="971" style="font-size:12; font-family:Dialog.plain; fill=#333333">idle</text>
<line  x1="275" y1="975" x2="275" y2="985" stroke="#333333" stroke-width="1" fill="none"/>
<line  x1="125" y1="945" x2="125" y2="985" stroke="#333333" stroke-width="1" fill="none"/>
<line  x1="425" y1="945" x2="425" y2="985" stroke="#333333" stroke-width="1" fill="none"/>
<line  x1="425" y1="985" x2="425" y2="995" stroke="#333333" stroke-width="1" fill="none"/>
<rect  x="388" y="995" width="74" height="20" rx="5" ry="5" fill="#ffffff"/>
<rect  x="388" y="995" width="74" height="20" rx="5" ry="5" fill="none" stroke="#333333" stroke-width="1"/>
<text  x="390" y="1011" style="font-size:12; font-family:Dialog.plain; fill=#333333">distance = 45</text>
<line  x1="425" y1="1015" x2="425" y2="1025" stroke="#333333" stroke-width="1" fill="none"/>
<line  x1="125" y1="985" x2="125" y2="1025" stroke="#333333" stroke-width="1" fill="none"/>
<line  x1="275" y1="985" x2="275" y2="1025" stroke="#333333" stroke-width="1" fill="none"/>
<line  x1="425" y1="1034" x2="125" y2="1034" stroke="#80b4cd" stroke-width="1" fill="none"/>
<line  x1="425" y1="1035" x2="125" y2="1035" stroke="#333333" stroke-width="1" fill="none"/>
<polygon  points="125,1035 133,1030 133,1039 " fill="#333333"/>
<polygon  points="125,1035 133,1030 133,1039 " fill="none" stroke="#333333" stroke-width="1"/>
<text  x="211" y="1033" style="font-size:12; font-family:Dialog.plain; fill=#333333">US_SEND_US_GET(45)</text>
<line  x1="125" y1="1025" x2="125" y2="1045" stroke="#333333" stroke-width="1" fill="none"/>
<line  x1="275" y1="1025" x2="275" y2="1045" stroke="#333333" stroke-width="1" fill="none"/>
<line  x1="425" y1="1025" x2="425" y2="1045" stroke="#333333" stroke-width="1" fill="none"/>
<line  x1="125" y1="1045" x2="125" y2="1055" stroke="#333333" stroke-width="1" fill="none"/>
<rect  x="96" y="1055" width="58" height="20" rx="5" ry="5" fill="#c1daf1"/>
<rect  x="96" y="1055" width="58" height="20" rx="5" ry="5" fill="none" stroke="#333333" stroke-width="1"/>
<text  x="98" y="1071" style="font-size:12; font-family:Dialog.plain; fill=#333333">choice__0</text>
<line  x1="125" y1="1075" x2="125" y2="1085" stroke="#333333" stroke-width="1" fill="none"/>
<line  x1="275" y1="1045" x2="275" y2="1085" stroke="#333333" stroke-width="1" fill="none"/>
<line  x1="425" y1="1045" x2="425" y2="1085" stroke="#333333" stroke-width="1" fill="none"/>
<line  x1="425" y1="1085" x2="425" y2="1095" stroke="#333333" stroke-width="1" fill="none"/>
<rect  x="411" y="1095" width="29" height="20" rx="5" ry="5" fill="#c1daf1"/>
<rect  x="411" y="1095" width="29" height="20" rx="5" ry="5" fill="none" stroke="#333333" stroke-width="1"/>
<text  x="413" y="1111" style="font-size:12; font-family:Dialog.plain; fill=#333333">busy</text>
<line  x1="425" y1="1115" x2="425" y2="1125" stroke="#333333" stroke-width="1" fill="none"/>
<line  x1="125" y1="1085" x2="125" y2="1125" stroke="#333333" stroke-width="1" fill="none"/>
<line  x1="275" y1="1085" x2="275" y2="1125" stroke="#333333" stroke-width="1" fill="none"/>
<line  x1="425" y1="1125" x2="425" y2="1135" stroke="#333333" stroke-width="1" fill="none"/>
<rect  x="388" y="1135" width="74" height="20" rx="5" ry="5" fill="#ffffff"/>
<rect  x="388" y="1135" width="74" height="20" rx="5" ry="5" fill="none" stroke="#333333" stroke-width="1"/>
<text  x="390" y="1151" style="font-size:12; font-family:Dialog.plain; fill=#333333">distance = 54</text>
<line  x1="425" y1="1155" x2="425" y2="1165" stroke="#333333" stroke-width="1" fill="none"/>
<line  x1="125" y1="1125" x2="125" y2="1165" stroke="#333333" stroke-width="1" fill="none"/>
<line  x1="275" y1="1125" x2="275" y2="1165" stroke="#333333" stroke-width="1" fill="none"/>
</svg>